<svg xmlns="http://www.w3.org/2000/svg" viewBox="0 0 56 56" width="56" height="56">
  <circle cx="28" cy="28" r="26" fill="#ffffff" stroke="#0f172a" stroke-width="1.2"/>
  <!-- Roof -->
  <path fill="#1e4a7a" stroke="#0f172a" stroke-width="1" d="M28 6 L40 18 H16 Z"/>
  <!-- Tank -->
  <rect x="14" y="18" width="28" height="16" rx="1" fill="#7dd3fc" stroke="#0f172a" stroke-width="1"/>
  <!-- Droplet -->
  <path fill="#1e4a7a" stroke="#0f172a" stroke-width="0.8" d="M28 22c-2 2.5-4 4.2-4 6.2a4 4 0 0 0 8 0c0-2-2-3.7-4-6.2z"/>
  <!-- Platform -->
  <rect x="10" y="34" width="36" height="4" fill="#64748b" stroke="#0f172a" stroke-width="1"/>
  <!-- Lattice legs -->
  <path fill="none" stroke="#64748b" stroke-width="1.5" d="M16 38v14M28 38v14M40 38v14"/>
  <path fill="none" stroke="#94a3b8" stroke-width="1" d="M16 42h24M16 46h24M18 38l10 14M38 38l-10 14M28 38v14"/>
</svg>
